<svg width="22" height="23" viewBox="0 0 22 23" fill="none" xmlns="http://www.w3.org/2000/svg">
    <path d="M19.2498 3.25H4.58317C4.34006 3.25 4.1069 3.34658 3.93499 3.51849C3.76308 3.69039 3.6665 3.92355 3.6665 4.16667V6.54083C3.6665 7.02025 3.86175 7.49142 4.20092 7.83058L9.1665 12.7962V19.75C9.16668 19.9062 9.20672 20.0597 9.28283 20.1961C9.35893 20.3325 9.46859 20.4472 9.60141 20.5293C9.73423 20.6115 9.88582 20.6584 10.0418 20.6656C10.1978 20.6727 10.3531 20.64 10.4929 20.5704L14.1596 18.7371C14.4703 18.5813 14.6665 18.2641 14.6665 17.9167V12.7962L19.6321 7.83058C19.9713 7.49142 20.1665 7.02025 20.1665 6.54083V4.16667C20.1665 3.92355 20.0699 3.69039 19.898 3.51849C19.7261 3.34658 19.493 3.25 19.2498 3.25ZM13.1018 11.7686C13.0165 11.8536 12.9488 11.9546 12.9027 12.0658C12.8566 12.177 12.833 12.2963 12.8332 12.4167V17.3502L10.9998 18.2668V12.4167C11 12.2963 10.9764 12.177 10.9303 12.0658C10.8842 11.9546 10.8165 11.8536 10.7313 11.7686L5.49984 6.54083V5.08333H18.3341L18.3359 6.53442L13.1018 11.7686Z" fill="#333333"/>
</svg>
