<svg width="57" height="57" viewBox="0 0 57 57" fill="none" xmlns="http://www.w3.org/2000/svg">
    <circle cx="28.3389" cy="28.3389" r="28.3389" fill="#44A300"/>
    <path fill-rule="evenodd" clip-rule="evenodd" d="M28.4851 13.0001C28.7001 12.994 29.6198 13.4421 35.1679 16.2581C38.7094 18.0506 41.6656 19.5828 41.7372 19.6615C41.8089 19.7402 41.8985 19.8856 41.9343 19.9885C41.9761 20.0975 42 20.5457 42 21.0786C42 21.5812 41.9701 22.3988 41.9343 22.8953C41.8985 23.398 41.8328 24.155 41.779 24.591C41.7313 25.027 41.6238 25.79 41.5401 26.2866C41.4565 26.7892 41.3013 27.6068 41.1878 28.1034C41.0743 28.606 40.8653 29.4357 40.722 29.9504C40.5727 30.4652 40.3159 31.2706 40.1427 31.7369C39.9695 32.2032 39.6649 32.9662 39.4618 33.4325C39.2588 33.8988 38.8945 34.6498 38.6496 35.0979C38.4048 35.546 37.9748 36.2727 37.6941 36.7027C37.4074 37.1327 36.9535 37.7746 36.6788 38.1258C36.4101 38.4771 35.7651 39.1856 35.2515 39.7064C34.7379 40.2211 34.0929 40.8328 33.8122 41.0569C33.5315 41.2809 32.9283 41.723 32.4685 42.0318C32.0086 42.3407 31.3218 42.7585 30.9456 42.9644C30.5693 43.1643 29.9064 43.4792 29.4824 43.6669C29.0345 43.8607 28.6165 44 28.497 44C28.3776 44 27.9595 43.8607 27.5116 43.6669C27.0816 43.4792 26.4545 43.1764 26.1082 42.9887C25.7618 42.807 25.2243 42.4921 24.9137 42.2922C24.6032 42.0924 24.1314 41.7775 23.8746 41.5898C23.6178 41.396 23.1161 40.9963 22.7697 40.6935C22.4234 40.3907 21.8381 39.8336 21.4738 39.452C21.1155 39.0705 20.5899 38.4771 20.3152 38.1258C20.0405 37.7746 19.6105 37.175 19.3597 36.7935C19.1088 36.412 18.7147 35.7701 18.4937 35.3704C18.2668 34.9707 17.9443 34.347 17.7711 33.9776C17.6038 33.6081 17.3709 33.0813 17.2515 32.7967C17.138 32.512 16.923 31.9428 16.7737 31.5249C16.6244 31.1071 16.4214 30.4833 16.3198 30.1321C16.2243 29.7808 16.0451 29.1147 15.9317 28.6484C15.8182 28.1821 15.6569 27.4312 15.5733 26.983C15.4957 26.5349 15.4001 25.9717 15.3643 25.7416C15.3285 25.5115 15.2568 24.9785 15.209 24.5607C15.1612 24.1428 15.0956 23.3919 15.0597 22.8953C15.0239 22.3927 15 21.5691 15 21.0604C15 20.4245 15.0239 20.0794 15.0836 19.9401C15.1254 19.8371 15.221 19.6918 15.2926 19.6252C15.3703 19.5586 18.3086 18.0385 21.8261 16.2521C27.1951 13.5269 28.2701 13.0001 28.4791 13.0001H28.4851ZM18.8042 21.993C18.7386 22.0899 18.6729 22.3019 18.6609 22.4714C18.649 22.6349 18.6788 23.2102 18.7386 23.7432C18.7923 24.2761 18.9117 25.1723 19.0073 25.7416C19.1029 26.3048 19.282 27.2192 19.4134 27.7703C19.5448 28.3214 19.8016 29.2176 19.9808 29.7687C20.1599 30.3198 20.4346 31.0829 20.5959 31.4644C20.7512 31.8459 21.0438 32.4878 21.2468 32.8875C21.4499 33.2872 21.7843 33.8928 21.9993 34.238C22.2084 34.5831 22.5965 35.1584 22.8534 35.5097C23.1161 35.873 23.7432 36.5755 24.2568 37.1024C24.8003 37.6535 25.4632 38.2469 25.8454 38.5376C26.2037 38.8101 26.8368 39.228 27.2488 39.4702C27.6609 39.7125 28.1148 39.9486 28.2641 39.9971C28.491 40.0637 28.5687 40.0637 28.7717 39.9971C28.9031 39.9486 29.357 39.7064 29.775 39.4581C30.1991 39.2098 30.8321 38.7859 31.1785 38.5255C31.5309 38.259 32.2356 37.6171 32.7492 37.1024C33.2628 36.5755 33.8898 35.873 34.1526 35.5097C34.4094 35.1584 34.7976 34.5831 35.0066 34.238C35.2216 33.8928 35.5561 33.2872 35.7591 32.8875C35.9622 32.4878 36.2548 31.8459 36.4101 31.4644C36.5713 31.0829 36.8461 30.3198 37.0252 29.7687C37.2044 29.2176 37.4612 28.3214 37.5926 27.7703C37.724 27.2192 37.9091 26.3048 37.9987 25.7416C38.0942 25.1723 38.2137 24.264 38.2674 23.7129C38.3271 23.1618 38.357 22.5925 38.3451 22.4411C38.3271 22.2897 38.2674 22.0899 38.2017 21.993C38.1121 21.8537 37.1327 21.3329 33.3822 19.4314C30.3663 17.9053 28.6165 17.0514 28.503 17.0514C28.3895 17.0514 26.6457 17.9053 23.6238 19.4314C19.8852 21.3269 18.8938 21.8537 18.8042 21.993ZM28.4851 18.9954C28.497 18.9893 30.3006 19.9037 36.5056 23.0467V23.289C36.5056 23.4222 36.4638 23.8522 36.4161 24.2397C36.3623 24.6334 36.2668 25.2692 36.2011 25.6507C36.1354 26.0323 35.9801 26.7832 35.8487 27.3161C35.7233 27.849 35.5202 28.6 35.4008 28.9815C35.2754 29.363 35.0425 30.017 34.8812 30.4349C34.72 30.8527 34.4273 31.5128 34.2303 31.9004C34.0392 32.294 33.7525 32.8269 33.5972 33.0813C33.4479 33.3417 33.1792 33.7595 33.006 34.0078C32.8328 34.2561 32.4804 34.7224 32.2176 35.0373C31.9608 35.3522 31.507 35.8428 31.2143 36.1153C30.9217 36.3938 30.438 36.8117 30.1453 37.0358C29.8467 37.2659 29.3809 37.5868 29.1002 37.7564C28.8195 37.926 28.5508 38.0653 28.503 38.0653C28.4552 38.0653 28.2223 37.9502 27.9954 37.8109C27.7624 37.6716 27.3862 37.4233 27.1593 37.2598C26.9263 37.0903 26.5262 36.7754 26.2634 36.5513C26.0007 36.3272 25.5946 35.9397 25.3676 35.6974C25.1347 35.4491 24.7644 35.0192 24.5375 34.7345C24.3165 34.4499 23.9582 33.9594 23.7551 33.6445C23.5461 33.3296 23.2296 32.7845 23.0385 32.4333C22.8534 32.0821 22.5607 31.4704 22.3816 31.0707C22.2084 30.6711 21.9336 29.9504 21.7664 29.4659C21.6052 28.9815 21.3603 28.1518 21.2289 27.6189C21.0916 27.086 20.9184 26.2806 20.8348 25.8324C20.7571 25.3843 20.6437 24.6818 20.5959 24.27C20.5421 23.8643 20.4944 23.4222 20.4764 23.0467L24.4778 21.0241C26.6755 19.9098 28.4791 18.9954 28.4851 18.9954Z" fill="white"/>
</svg>
