<svg width="57" height="57" viewBox="0 0 57 57" fill="none" xmlns="http://www.w3.org/2000/svg">
    <circle cx="28.3389" cy="28.3389" r="28.3389" fill="#44A300"/>
    <path d="M41.2803 11.1901L41.0794 10.9892L40.8856 10.7954H42.0051L41.6391 11.1901V20.1246H41.8544C41.998 20.1246 42.0697 20.1605 42.0697 20.2323C42.0697 20.2897 42.1128 20.3542 42.163 20.3686C42.2061 20.383 42.6725 20.3973 43.182 20.3973C43.9499 20.3973 44.1652 20.4188 44.3948 20.5265C44.5527 20.6054 44.7537 20.7489 44.847 20.8638C44.9331 20.9714 45.0407 21.1795 45.0838 21.3302C45.1268 21.5025 45.1484 24.7964 45.1196 39.5509L44.9331 39.7949C44.8326 39.9312 44.6388 40.1178 44.5025 40.2183C44.2657 40.3905 44.2154 40.3977 41.7827 40.4335L41.7109 40.7565C41.6463 41.0507 41.6176 41.0794 41.4239 41.0794C41.2803 41.0794 41.2014 41.0364 41.1799 40.9574C41.1655 40.8857 41.1296 40.7421 41.065 40.4335L16.1991 40.4694L16.1274 40.778C16.0628 41.0579 16.0413 41.0794 15.826 41.0794C15.5963 41.0794 15.5892 41.0651 15.5174 40.4335L14.2759 40.4192C13.0775 40.3977 13.02 40.3905 12.7473 40.2111C12.5823 40.1034 12.4029 39.8953 12.1445 39.393V30.4082C12.1445 24.2223 12.1661 21.3518 12.2235 21.2154C12.2594 21.1078 12.3813 20.9284 12.489 20.8207C12.5966 20.7059 12.7689 20.5695 12.8765 20.5121C13.0487 20.426 15.137 20.4117 26.856 20.4117C34.4341 20.4117 40.6847 20.3973 40.7421 20.3758C40.7995 20.3542 40.8497 20.2897 40.8497 20.2323C40.8497 20.1605 40.9215 20.1246 41.2803 20.1246V11.1901Z" fill="white"/>
    <path d="M12.6819 21.3231C12.7393 21.2011 12.8756 21.036 12.9833 20.9715C13.1699 20.8566 14.1315 20.8495 28.6133 20.8423C40.7197 20.8423 44.0782 20.8638 44.2145 20.9356C44.3078 20.9786 44.4585 21.115 44.6882 21.4236V30.3796C44.6882 38.783 44.681 39.3428 44.559 39.5222C44.4944 39.6298 44.3652 39.7662 44.272 39.8236C44.1356 39.9169 42.1836 39.9313 28.6635 39.9313C16.4494 39.9313 13.177 39.9097 13.0191 39.838C12.9115 39.7949 12.768 39.637 12.7034 39.5007C12.5814 39.2639 12.5742 38.6826 12.5742 30.4011C12.5742 22.7225 12.5886 21.5312 12.6819 21.3231Z" fill="#44A300"/>
    <path d="M13.4219 22.2273L13.5798 22.0336L13.7305 21.847H28.6213C43.4116 21.847 43.5049 21.847 43.6485 21.9905C43.7274 22.0695 43.8063 22.2417 43.8279 22.3709C43.8494 22.4929 43.8566 26.2102 43.8494 30.6164L43.8493 30.6487C43.8279 38.568 43.8277 38.6397 43.6843 38.7831C43.5336 38.9266 43.5193 38.9266 13.7592 38.9266L13.4362 38.5678L13.4219 22.2273Z" fill="white"/>
    <path d="M33.9222 23.6916C34.202 23.5768 34.6326 23.4404 34.891 23.3902C35.1493 23.34 35.6875 23.2897 36.0966 23.2897C36.5128 23.2826 37.0654 23.3328 37.3811 23.3974C37.6897 23.462 38.149 23.5983 38.4073 23.706C38.6657 23.8136 39.0676 24.0289 39.3044 24.1796C39.5412 24.3303 39.9431 24.6461 40.1942 24.8901C40.4454 25.1341 40.7827 25.5216 40.9406 25.7584C41.0985 25.9952 41.3425 26.4114 41.4716 26.6913C41.6008 26.9712 41.773 27.5022 41.852 27.8754C41.9309 28.2486 41.9955 28.8083 41.9955 29.1097C41.9955 29.4183 41.9524 29.9063 41.895 30.1862C41.8376 30.4732 41.7084 30.9325 41.6008 31.2124C41.5003 31.4923 41.2707 31.9372 41.1056 32.2171C40.9334 32.4969 40.6177 32.8988 40.4095 33.1141C40.1942 33.3294 39.8426 33.6452 39.6273 33.8102C39.412 33.9681 39.0389 34.2049 38.802 34.3269C38.5652 34.4417 38.1777 34.6068 37.9409 34.6929C37.7041 34.7718 37.1874 34.8723 36.7927 34.9225C36.2329 34.9871 35.9243 34.9871 35.4077 34.9225C35.0488 34.8723 34.5106 34.7503 34.2307 34.6498C33.9437 34.5422 33.5633 34.3843 33.3839 34.2982C33.2045 34.2049 32.817 33.9466 32.5228 33.7169C32.2286 33.4801 31.8195 33.0854 31.6042 32.8271C31.3961 32.5687 31.0803 32.0664 30.9081 31.7147C30.7359 31.3631 30.5349 30.8607 30.4632 30.6024C30.3699 30.2508 30.3412 29.8632 30.3412 29.0595C30.334 28.0261 30.3484 27.9543 30.5708 27.3013C30.7 26.9281 30.944 26.3971 31.109 26.1172C31.2741 25.8445 31.6329 25.3781 31.9128 25.0838C32.1855 24.7968 32.6376 24.4092 32.9175 24.2298C33.1974 24.0433 33.6423 23.8064 33.9222 23.6916Z" fill="white"/>
    <path d="M32.1998 36.286C32.2573 36.1999 32.4151 36.0636 32.5371 35.9846C32.6663 35.9057 32.8601 35.8411 32.9677 35.8411C33.0825 35.8411 33.2763 35.8842 33.3983 35.9344C33.5275 35.9918 33.6853 36.0923 33.7428 36.164C33.8002 36.243 33.8863 36.4152 33.9293 36.5587C33.9796 36.7094 33.9867 36.9032 33.9509 37.0611C33.9222 37.2046 33.7858 37.4127 33.6423 37.5419C33.427 37.7356 33.3265 37.7787 33.061 37.7787C32.8816 37.7787 32.6376 37.7285 32.5228 37.6711C32.3864 37.5993 32.2573 37.4414 32.1568 37.219C32.0491 36.9893 32.0204 36.8099 32.0491 36.6664C32.0778 36.5516 32.1424 36.3793 32.1998 36.286Z" fill="white"/>
    <path d="M38.4432 36.286C38.5006 36.1999 38.6585 36.0636 38.7805 35.9846C38.9097 35.9057 39.1322 35.8411 39.2685 35.8411C39.4049 35.8411 39.6273 35.9057 39.7493 35.9846C39.8785 36.0636 40.0292 36.1999 40.0866 36.286C40.144 36.3793 40.2086 36.5587 40.2301 36.6807C40.2588 36.8386 40.223 37.0252 40.1297 37.2405C40.0364 37.4486 39.9072 37.5993 39.7708 37.6711C39.656 37.7285 39.4264 37.7787 39.2685 37.7787C39.1106 37.7787 38.8953 37.7356 38.7949 37.6854C38.6944 37.6424 38.5437 37.4845 38.4576 37.3481C38.3571 37.1807 38.3117 36.9893 38.3212 36.774C38.3284 36.5946 38.3786 36.3793 38.4432 36.286Z" fill="white"/>
    <path d="M33.8537 24.4233C34.0905 24.3084 34.5068 24.1506 34.7866 24.0716C35.1885 23.964 35.4827 23.9353 36.2578 23.9496C37.0831 23.9712 37.3055 23.9999 37.7648 24.1577C38.059 24.2582 38.4968 24.4592 38.7336 24.5955C38.9704 24.7319 39.3292 24.983 39.5373 25.1553C39.7455 25.3275 40.0612 25.6648 40.2478 25.9016C40.4272 26.1384 40.6712 26.5116 40.7788 26.7269C40.8865 26.9422 41.0444 27.3297 41.1233 27.588C41.2022 27.8464 41.2812 28.2554 41.353 28.9515H39.6306C37.9586 28.9515 37.9083 28.9443 37.9083 28.808C37.9083 28.7291 37.8653 28.5568 37.815 28.4276C37.7576 28.3057 37.6069 28.076 37.4706 27.9181C37.3342 27.7674 37.1046 27.5808 36.9611 27.5091C36.8104 27.4301 36.552 27.3512 36.3869 27.3297C36.2147 27.301 35.9205 27.3153 35.7196 27.3656C35.4684 27.4158 35.2531 27.5378 35.0091 27.7459C34.8153 27.9181 34.6072 28.1549 34.5498 28.2698C34.4924 28.3846 34.4206 28.5855 34.3489 28.9156L30.9473 28.9515V28.7147C30.9473 28.5927 30.9975 28.2626 31.055 27.9827C31.1124 27.7028 31.2846 27.222 31.4425 26.9063C31.5932 26.5905 31.8731 26.1241 32.0668 25.8729C32.2606 25.6217 32.6409 25.2342 32.9208 25.0189C33.2007 24.8108 33.6169 24.5381 33.8537 24.4233Z" fill="#44A300"/>
    <path d="M31.1698 30.6021C31.0837 30.3437 30.9975 29.9347 30.976 29.6835L30.9258 29.2386L34.3417 29.2745L34.4206 29.5974C34.4637 29.7768 34.6144 30.0638 34.7508 30.2361C34.9086 30.4227 35.1526 30.6164 35.3966 30.7312C35.7339 30.8891 35.8559 30.9107 36.2578 30.8748C36.5161 30.8532 36.8247 30.7887 36.9395 30.7312C37.0543 30.6667 37.2625 30.5088 37.3988 30.3796C37.528 30.2433 37.7002 30.0064 37.772 29.8486C37.8437 29.6907 37.9083 29.4897 37.9083 29.2386H41.3888L41.3314 29.6835C41.2955 29.9347 41.2022 30.3437 41.1233 30.6021C41.0444 30.8604 40.8721 31.2766 40.7358 31.535C40.6066 31.7933 40.3411 32.1809 40.1545 32.4033C39.9607 32.6258 39.6306 32.9631 39.4153 33.1425C39.2001 33.3291 38.7623 33.6018 38.4465 33.7596C38.1308 33.9175 37.5854 34.1113 37.2266 34.1902C36.8749 34.2692 36.3941 34.3337 36.1717 34.3337C35.942 34.3337 35.5043 34.2835 35.2029 34.2189C34.8943 34.1615 34.4493 34.0323 34.2125 33.9319C33.9757 33.8386 33.6025 33.652 33.3873 33.5228C33.172 33.4008 32.7486 33.0492 32.4543 32.7478C32.0883 32.3746 31.8228 32.023 31.6147 31.6355C31.4497 31.3269 31.2487 30.8604 31.1698 30.6021Z" fill="#44A300"/>
</svg>
