<svg width="57" height="57" viewBox="0 0 57 57" fill="none" xmlns="http://www.w3.org/2000/svg">
    <circle cx="28.3389" cy="28.3389" r="28.3389" fill="#44A300"/>
    <path fill-rule="evenodd" clip-rule="evenodd" d="M27.4617 12.0016C30.4785 11.9955 30.6905 12.0016 30.9753 12.1128C31.1449 12.1808 31.3872 12.3229 31.5144 12.4403C31.6477 12.5515 31.8173 12.7862 31.896 12.9531C32.0293 13.2496 32.0354 13.3299 32.0354 14.6705C32.0354 15.7517 32.0536 16.0729 32.1141 16.0729C32.1505 16.0729 32.4655 16.215 32.8047 16.3818C33.15 16.5548 33.4468 16.6907 33.4711 16.6907C33.5014 16.6846 33.9557 16.3262 34.4888 15.8876C35.0219 15.449 35.5671 15.0474 35.7003 14.9856C35.8336 14.93 36.0941 14.8806 36.2758 14.8806C36.4818 14.8806 36.7181 14.93 36.8816 15.0041C37.0331 15.0721 37.2572 15.2327 37.3784 15.3687C37.4995 15.4984 38.4385 16.6784 39.4562 17.9881C40.48 19.2979 41.3705 20.4902 41.4431 20.6447C41.5219 20.8177 41.5643 21.0462 41.5643 21.2625C41.5643 21.4478 41.5158 21.7135 41.4613 21.8494C41.4068 21.9853 41.2856 22.1768 41.1948 22.2757C41.1039 22.3683 40.6072 22.7884 39.1533 23.9684L39.2866 24.5801C39.3653 24.9137 39.4259 25.2411 39.4259 25.3091C39.4198 25.377 39.4562 25.4635 39.4986 25.5006C39.541 25.5376 40.0983 25.6859 40.7283 25.8342C41.3583 25.9825 42.0005 26.1554 42.1458 26.2296C42.2973 26.3037 42.5154 26.4705 42.6305 26.6126C42.7516 26.7485 42.8849 26.9709 42.9212 27.1069C42.9637 27.2366 43 27.4467 43 27.564C43 27.6814 42.6729 29.2383 42.2731 31.0237C41.6491 33.7976 41.5219 34.3042 41.3765 34.5143C41.2856 34.6502 41.0736 34.8479 40.9101 34.9468C40.698 35.0765 40.5163 35.1383 40.28 35.1568C40.0256 35.1753 39.6197 35.1012 37.4571 34.5946L37.3057 34.7985C37.2209 34.9097 37.0088 35.1815 36.8392 35.3916C36.6635 35.6078 36.5182 35.8055 36.5182 35.8426C36.5182 35.8796 36.7665 36.4418 37.0755 37.0967C37.6146 38.2396 37.6328 38.3014 37.6388 38.7153C37.6388 39.0304 37.6025 39.2158 37.5177 39.3949C37.4511 39.5308 37.3117 39.7224 37.2087 39.8274C37.0876 39.9448 35.9487 40.544 34.1193 41.446C32.5261 42.2306 31.0964 42.9102 30.945 42.9534C30.7087 43.0214 30.6239 43.0152 30.3089 42.9164C30.0666 42.8422 29.8546 42.7187 29.6789 42.5519C29.4669 42.348 29.3033 42.0638 28.2735 39.8892H26.7106L26.1411 41.0939C25.6626 42.1071 25.5293 42.3356 25.2991 42.5457C25.1355 42.694 24.8811 42.8422 24.6691 42.9102C24.3541 43.0214 24.2814 43.0214 24.0391 42.9534C23.8876 42.9102 22.4641 42.2306 20.8648 41.446C18.7082 40.3772 17.9146 39.9571 17.7632 39.7965C17.6481 39.6791 17.5088 39.4814 17.4482 39.364C17.3816 39.2219 17.3452 38.9995 17.3452 38.7153C17.3513 38.3014 17.3694 38.2396 17.9086 37.0905C18.2175 36.4418 18.4659 35.8796 18.4659 35.8426C18.4659 35.8055 18.3205 35.6078 18.1509 35.3916C17.9752 35.1815 17.7632 34.9097 17.5269 34.5946L16.3154 34.885C15.4007 35.1012 15.013 35.1692 14.7343 35.1506C14.4556 35.1383 14.2981 35.0888 14.074 34.9468C13.9104 34.8479 13.7045 34.6502 13.6075 34.5143C13.4622 34.3042 13.3289 33.7853 12.7049 30.9928C12.1476 28.4907 11.978 27.6505 12.0022 27.4405C12.0204 27.286 12.087 27.0513 12.1537 26.9153C12.2203 26.7794 12.3536 26.5941 12.4505 26.5076C12.5414 26.4149 12.6868 26.3037 12.7716 26.2481C12.8564 26.1925 13.4803 26.0195 14.1649 25.8589C14.8494 25.6983 15.4431 25.5376 15.4855 25.5006C15.5279 25.4635 15.5642 25.377 15.5582 25.3091C15.5582 25.2411 15.6187 24.9137 15.8308 23.9746L14.8615 23.1777C14.3284 22.7452 13.8317 22.3189 13.759 22.2386C13.6863 22.1645 13.5773 21.9853 13.5227 21.8494C13.4682 21.7135 13.4198 21.4355 13.4137 21.2316C13.4137 20.9474 13.45 20.7929 13.5651 20.5829C13.6499 20.4284 14.5768 19.2052 15.6248 17.8646C16.6788 16.5239 17.6178 15.3501 17.7147 15.2574C17.8117 15.1648 17.9995 15.0412 18.1327 14.9856C18.266 14.93 18.5265 14.8806 18.7082 14.8806C18.8899 14.8806 19.1504 14.93 19.2837 14.9856C19.417 15.0474 19.9622 15.449 20.4953 15.8876C21.0284 16.3262 21.4827 16.6846 21.513 16.6907C21.5372 16.6907 21.8098 16.5672 22.1188 16.4189C22.4216 16.2706 22.7367 16.1347 22.8154 16.11C22.9487 16.0729 22.9487 16.0729 22.9487 14.6705C22.9487 13.3299 22.9547 13.2496 23.088 12.9531C23.1668 12.7862 23.3364 12.5515 23.4696 12.4341C23.5969 12.3229 23.8271 12.1808 23.9785 12.119C24.2269 12.0202 24.5298 12.0078 27.4617 12.0016ZM25.6141 21.6331C25.396 21.7073 25.0326 21.8679 24.7963 21.9853C24.5661 22.1027 24.2208 22.3004 24.0391 22.4239C23.8573 22.5475 23.4878 22.8749 23.2213 23.1468C22.9487 23.4186 22.5913 23.8634 22.4156 24.1352C22.2399 24.4071 22.0158 24.8395 21.9128 25.0928C21.8098 25.3461 21.6644 25.7662 21.5978 26.0195C21.4948 26.3964 21.4706 26.6682 21.4706 27.5023C21.4706 28.3734 21.4887 28.5958 21.6099 29.0468C21.6826 29.3371 21.8704 29.8375 22.0158 30.1588C22.1672 30.4801 22.4095 30.9125 22.5549 31.1164C22.6942 31.3203 23.0274 31.6971 23.2879 31.9566C23.5545 32.2161 23.9422 32.5435 24.1602 32.6856C24.3783 32.8277 24.7297 33.0316 24.9478 33.1304C25.1658 33.2354 25.5717 33.3899 25.8564 33.4826C26.3289 33.6308 26.4622 33.6432 27.4617 33.6432C28.431 33.6494 28.6067 33.6308 29.0368 33.5073C29.3033 33.427 29.7092 33.2787 29.9454 33.1737C30.1817 33.0748 30.5573 32.8648 30.7935 32.7103C31.0298 32.5559 31.4296 32.2161 31.6961 31.9566C31.9566 31.6971 32.2898 31.3203 32.4291 31.1164C32.5745 30.9125 32.8168 30.4801 32.9683 30.1588C33.1137 29.8375 33.2954 29.3371 33.3742 29.0468C33.459 28.7008 33.5135 28.256 33.5317 27.7494C33.5559 27.1748 33.5377 26.835 33.459 26.4211C33.4044 26.1184 33.2772 25.6427 33.1803 25.3708C33.0834 25.099 32.8835 24.6665 32.7381 24.4133C32.5927 24.16 32.314 23.7522 32.1141 23.5174C31.9203 23.2827 31.5386 22.9058 31.2721 22.6834C30.9995 22.461 30.5512 22.1645 30.2726 22.0224C29.9939 21.8803 29.5941 21.7073 29.3881 21.6393C29.1761 21.5652 28.7702 21.4663 28.4794 21.4169C28.1826 21.3675 27.7162 21.3242 27.4314 21.3304C27.1467 21.3304 26.7106 21.3737 26.4622 21.4169C26.2138 21.4663 25.8322 21.5652 25.6141 21.6331ZM27.4617 24.4194C27.6314 24.4194 27.9403 24.4565 28.1584 24.5121C28.3765 24.5615 28.7036 24.6789 28.8853 24.7716C29.0731 24.8642 29.3942 25.1114 29.6183 25.34C29.8849 25.6118 30.0787 25.8713 30.1999 26.1431C30.3028 26.3655 30.4179 26.6929 30.4543 26.8721C30.4906 27.0451 30.5209 27.354 30.5209 27.5517C30.5209 27.7432 30.4785 28.0706 30.424 28.2745C30.3755 28.4784 30.2544 28.7996 30.1575 28.985C30.0605 29.1703 29.8546 29.4545 29.7031 29.6213C29.5517 29.7819 29.2851 30.0043 29.1155 30.1217C28.9398 30.2329 28.6612 30.375 28.4916 30.4368C28.328 30.4986 27.9585 30.5604 27.6738 30.5789C27.3709 30.5913 27.0195 30.5727 26.8257 30.5295C26.6439 30.4862 26.3047 30.3565 26.0745 30.2268C25.8443 30.1032 25.5172 29.8623 25.3476 29.6893C25.1779 29.5163 24.9538 29.2136 24.8448 29.0097C24.7418 28.812 24.6085 28.4784 24.5601 28.2745C24.5055 28.0706 24.4631 27.7432 24.4631 27.5517C24.4631 27.354 24.4934 27.0451 24.5298 26.8721C24.5661 26.6929 24.6812 26.3655 24.7842 26.1431C24.8993 25.8836 25.0992 25.6056 25.3354 25.3647C25.5475 25.1484 25.8685 24.9075 26.0866 24.7901C26.2926 24.6851 26.6197 24.5615 26.8136 24.5121C27.0013 24.4627 27.2982 24.4194 27.4617 24.4194Z" fill="white"/>
</svg>
