<svg width="20" height="20" viewBox="0 0 20 20" fill="none" xmlns="http://www.w3.org/2000/svg">
<path d="M10 11.4904L4.78369 16.7067C4.68602 16.8037 4.56953 16.8798 4.44137 16.9301C4.31322 16.9805 4.17612 17.004 4.03851 16.9994C3.9009 17.004 3.76379 16.9805 3.63564 16.9301C3.50749 16.8798 3.39099 16.8037 3.29332 16.7067C3.19627 16.609 3.12023 16.4925 3.06989 16.3644C3.01954 16.2362 2.99595 16.0991 3.00057 15.9615C2.99608 15.8239 3.01972 15.6868 3.07006 15.5587C3.1204 15.4306 3.19637 15.314 3.29332 15.2163L8.50963 10L3.29332 4.78369C3.19627 4.68602 3.12023 4.56953 3.06989 4.44137C3.01954 4.31322 2.99595 4.17612 3.00057 4.03851C2.99608 3.90091 3.01972 3.76385 3.07006 3.63571C3.1204 3.50757 3.19637 3.39106 3.29332 3.29332C3.39099 3.19627 3.50749 3.12023 3.63564 3.06989C3.76379 3.01954 3.9009 2.99595 4.03851 3.00057C4.1761 2.99608 4.31317 3.01972 4.4413 3.07006C4.56944 3.1204 4.68595 3.19637 4.78369 3.29332L10 8.50963L15.2163 3.29332C15.314 3.19627 15.4305 3.12023 15.5586 3.06989C15.6868 3.01954 15.8239 2.99595 15.9615 3.00057C16.0991 2.99608 16.2362 3.01972 16.3643 3.07006C16.4924 3.1204 16.6089 3.19637 16.7067 3.29332C16.8037 3.39099 16.8798 3.50749 16.9301 3.63564C16.9805 3.76379 17.0041 3.90089 16.9994 4.03851C17.0041 4.17612 16.9805 4.31322 16.9301 4.44137C16.8798 4.56953 16.8037 4.68602 16.7067 4.78369L11.4904 10L16.7067 15.2163C16.8037 15.314 16.8797 15.4305 16.93 15.5587C16.9804 15.6868 17.004 15.8239 16.9994 15.9615C17.0041 16.0991 16.9805 16.2362 16.9301 16.3644C16.8798 16.4925 16.8037 16.609 16.7067 16.7067C16.609 16.8037 16.4925 16.8798 16.3644 16.9301C16.2362 16.9805 16.0991 17.004 15.9615 16.9994C15.8239 17.004 15.6868 16.9805 15.5586 16.9301C15.4305 16.8798 15.314 16.8037 15.2163 16.7067L10 11.4904Z" fill="#2D2D2D"/>
</svg>
