<svg width="36" height="36" viewBox="0 0 36 36" fill="none" xmlns="http://www.w3.org/2000/svg">
    <g clip-path="url(#clip0_8414_17130)">
        <path d="M25.7148 11.125H9.46484C9.11914 11.125 8.83984 11.4043 8.83984 11.75V24.25C8.83984 24.5957 9.11914 24.875 9.46484 24.875H25.7148C26.0605 24.875 26.3398 24.5957 26.3398 24.25V11.75C26.3398 11.4043 26.0605 11.125 25.7148 11.125ZM24.1367 13.252L17.9746 18.0469C17.8223 18.166 17.6094 18.166 17.457 18.0469L11.293 13.252C11.2697 13.234 11.2527 13.2093 11.2442 13.1812C11.2358 13.1531 11.2363 13.123 11.2458 13.0952C11.2553 13.0674 11.2732 13.0433 11.2971 13.0263C11.3209 13.0092 11.3496 13 11.3789 13H24.0508C24.0801 13 24.1087 13.0092 24.1326 13.0263C24.1565 13.0433 24.1744 13.0674 24.1839 13.0952C24.1934 13.123 24.1939 13.1531 24.1855 13.1812C24.177 13.2093 24.16 13.234 24.1367 13.252Z" fill="black" fill-opacity="0.45"/>
        <path d="M18 35.5C27.665 35.5 35.5 27.665 35.5 18C35.5 8.33502 27.665 0.5 18 0.5C8.33502 0.5 0.5 8.33502 0.5 18C0.5 27.665 8.33502 35.5 18 35.5Z" stroke="#C2C2C2"/>
    </g>
    <defs>
        <clipPath id="clip0_8414_17130">
            <rect width="36" height="36" fill="white"/>
        </clipPath>
    </defs>
</svg>
