<svg width="36" height="36" viewBox="0 0 36 36" fill="none" xmlns="http://www.w3.org/2000/svg">
    <g clip-path="url(#clip0_8414_17135)">
        <path d="M24.8867 12.4961L22.8066 10.418C22.6599 10.2706 22.4855 10.1537 22.2934 10.0739C22.1014 9.99412 21.8955 9.95308 21.6875 9.95313C21.2637 9.95313 20.8652 10.1191 20.5664 10.418L18.3281 12.6562C18.1807 12.803 18.0638 12.9774 17.984 13.1694C17.9043 13.3615 17.8632 13.5674 17.8633 13.7754C17.8633 14.1992 18.0293 14.5977 18.3281 14.8965L19.9648 16.5332C19.5817 17.3777 19.0491 18.1459 18.3926 18.8008C17.7377 19.4589 16.9696 19.9935 16.125 20.3789L14.4883 18.7422C14.3416 18.5948 14.1671 18.4779 13.9751 18.3981C13.783 18.3183 13.5771 18.2773 13.3691 18.2773C12.9453 18.2773 12.5469 18.4434 12.248 18.7422L10.0078 20.9785C9.86026 21.1255 9.74322 21.3002 9.66345 21.4926C9.58367 21.685 9.54273 21.8913 9.54297 22.0996C9.54297 22.5234 9.70899 22.9219 10.0078 23.2207L12.084 25.2969C12.5605 25.7754 13.2188 26.0469 13.8945 26.0469C14.0371 26.0469 14.1738 26.0352 14.3086 26.0117C16.9414 25.5781 19.5527 24.1777 21.6602 22.0723C23.7656 19.9688 25.1641 17.3594 25.6035 14.7188C25.7363 13.9121 25.4687 13.082 24.8867 12.4961Z" fill="black" fill-opacity="0.45"/>
        <path d="M18 35.5C27.665 35.5 35.5 27.665 35.5 18C35.5 8.33502 27.665 0.5 18 0.5C8.33502 0.5 0.5 8.33502 0.5 18C0.5 27.665 8.33502 35.5 18 35.5Z" stroke="#C2C2C2"/>
    </g>
    <defs>
        <clipPath id="clip0_8414_17135">
            <rect width="36" height="36" fill="white"/>
        </clipPath>
    </defs>
</svg>
