<svg width="20" height="20" viewBox="0 0 20 20" fill="none" xmlns="http://www.w3.org/2000/svg">
<path d="M16.6667 1.66699H3.33333C2.875 1.66699 2.5 2.04199 2.5 2.50033V4.16699C2.5 4.36699 2.575 4.56699 2.70833 4.71699L8.33333 11.1503V17.5003C8.33333 17.8337 8.53333 18.142 8.85 18.267C8.95 18.3087 9.05833 18.3337 9.16667 18.3337C9.38333 18.3337 9.6 18.2503 9.75833 18.092L11.425 16.4253C11.5833 16.267 11.6667 16.0587 11.6667 15.8337V11.1503L17.2917 4.71699C17.425 4.56699 17.5 4.36699 17.5 4.16699V2.50033C17.5 2.04199 17.125 1.66699 16.6667 1.66699Z" fill="black"/>
</svg>
